<?xml version="1.0" encoding="UTF-8"?>
<svg xmlns="http://www.w3.org/2000/svg" width="1080" height="1920" viewBox="0 0 1080 1920">
  <defs>
    <linearGradient id="sky_grad" x1="0" y1="0" x2="0" y2="1">
      <stop offset="0%"   stop-color="#080514"/>
      <stop offset="50%"  stop-color="#150e30"/>
      <stop offset="100%" stop-color="#0e0a22"/>
    </linearGradient>
    <radialGradient id="moon_glow" cx="72%" cy="18%" r="25%">
      <stop offset="0%"   stop-color="#f0e8c8" stop-opacity="0.35"/>
      <stop offset="60%"  stop-color="#8860a0" stop-opacity="0.08"/>
      <stop offset="100%" stop-color="#080514" stop-opacity="0"/>
    </radialGradient>
    <radialGradient id="ground_glow" cx="50%" cy="100%" r="60%">
      <stop offset="0%"   stop-color="#4a2060" stop-opacity="0.5"/>
      <stop offset="100%" stop-color="#080514" stop-opacity="0"/>
    </radialGradient>
    <linearGradient id="mist_grad" x1="0" y1="0" x2="0" y2="1">
      <stop offset="0%"   stop-color="#2a1858" stop-opacity="0"/>
      <stop offset="100%" stop-color="#1a0f3a" stop-opacity="0.9"/>
    </linearGradient>
    <filter id="blur_sm">
      <feGaussianBlur stdDeviation="2"/>
    </filter>
    <filter id="blur_lg">
      <feGaussianBlur stdDeviation="6"/>
    </filter>
  </defs>

  <!-- 하늘 배경 -->
  <rect width="1080" height="1920" fill="url(#sky_grad)"/>

  <!-- 달빛 글로우 -->
  <rect width="1080" height="1920" fill="url(#moon_glow)"/>

  <!-- 지평 글로우 -->
  <rect width="1080" height="1920" fill="url(#ground_glow)"/>

  <!-- 별자리 -->
  <g fill="#f0e8c8" opacity="0.7">
    <!-- 북두칠성 -->
    <circle cx="200" cy="80"  r="2.5"/>
    <circle cx="230" cy="70"  r="2"/>
    <circle cx="265" cy="65"  r="2.5"/>
    <circle cx="300" cy="68"  r="2"/>
    <circle cx="330" cy="90"  r="2.5"/>
    <circle cx="350" cy="120" r="2"/>
    <circle cx="380" cy="100" r="2.5"/>
  </g>
  <g fill="#e8e0b8" opacity="0.5">
    <!-- 산재한 작은 별들 -->
    <circle cx="50"  cy="50"  r="1.5"/>
    <circle cx="110" cy="130" r="1"/>
    <circle cx="160" cy="90"  r="1.5"/>
    <circle cx="440" cy="55"  r="1.5"/>
    <circle cx="500" cy="140" r="1"/>
    <circle cx="560" cy="60"  r="2"/>
    <circle cx="620" cy="100" r="1.5"/>
    <circle cx="680" cy="40"  r="1"/>
    <circle cx="740" cy="150" r="1.5"/>
    <circle cx="900" cy="80"  r="1.5"/>
    <circle cx="950" cy="50"  r="1"/>
    <circle cx="1000" cy="130" r="1.5"/>
    <circle cx="1040" cy="70" r="1"/>
    <circle cx="80"  cy="200" r="1"/>
    <circle cx="400" cy="170" r="1.5"/>
    <circle cx="470" cy="220" r="1"/>
    <circle cx="830" cy="180" r="1.5"/>
    <circle cx="980" cy="200" r="1"/>
  </g>

  <!-- 달 (흰색 원 + 테두리 글로우) -->
  <circle cx="778" cy="270" r="85" fill="#f5f0dd" filter="url(#blur_sm)"/>
  <circle cx="778" cy="270" r="78" fill="#fffae8"/>
  <!-- 달 표면 음영 -->
  <circle cx="760" cy="255" r="60" fill="#f0eacc" opacity="0.4"/>
  <circle cx="800" cy="290" r="30" fill="#e8dfc0" opacity="0.2"/>
  <!-- 달 테두리 -->
  <circle cx="778" cy="270" r="78" fill="none" stroke="#f0e8c8" stroke-width="2" opacity="0.6"/>
  <circle cx="778" cy="270" r="96" fill="none" stroke="#f0e8c8" stroke-width="1" opacity="0.2"
    filter="url(#blur_lg)"/>

  <!-- 구름 (달 주변) -->
  <ellipse cx="900" cy="310" rx="160" ry="35" fill="#1e1445" opacity="0.85"/>
  <ellipse cx="880" cy="290" rx="100" ry="25" fill="#2a1c55" opacity="0.7"/>
  <ellipse cx="640" cy="330" rx="140" ry="30" fill="#1e1445" opacity="0.7"/>

  <!-- 뒤쪽 산맥 (먼 거리) -->
  <path d="M0,1200
    L80,1050 L160,1110 L240,980 L350,920 L440,990
    L520,860 L600,940 L680,870 L760,950 L840,820
    L920,900 L1000,830 L1080,900
    L1080,1920 L0,1920 Z"
    fill="#130d28"/>

  <!-- 중간 산맥 -->
  <path d="M0,1350
    L100,1200 L200,1280 L320,1150 L450,1250
    L560,1130 L660,1220 L780,1100 L880,1200
    L980,1120 L1080,1200
    L1080,1920 L0,1920 Z"
    fill="#0f0b20"/>

  <!-- 앞 산맥 + 소나무 실루엣 -->
  <path d="M0,1550
    L80,1420 L160,1480 L260,1380 L380,1450
    L500,1360 L620,1430 L740,1350 L860,1440
    L960,1360 L1080,1440
    L1080,1920 L0,1920 Z"
    fill="#0a0818"/>

  <!-- 소나무 실루엣들 (좌측) -->
  <g fill="#070616" opacity="0.95">
    <!-- 소나무 1 -->
    <polygon points="60,1380 50,1420 70,1420" />
    <polygon points="60,1360 45,1395 75,1395" />
    <polygon points="60,1340 42,1380 78,1380" />
    <rect x="57" y="1420" width="6" height="30"/>
    <!-- 소나무 2 -->
    <polygon points="130,1400 118,1445 142,1445" />
    <polygon points="130,1378 115,1415 145,1415" />
    <polygon points="130,1358 112,1400 148,1400" />
    <rect x="127" y="1445" width="6" height="25"/>
    <!-- 소나무 3 -->
    <polygon points="30,1500 18,1545 42,1545" />
    <polygon points="30,1478 15,1515 45,1515" />
    <rect x="27" y="1545" width="6" height="20"/>
  </g>

  <!-- 소나무 실루엣들 (우측) -->
  <g fill="#070616" opacity="0.95">
    <polygon points="990,1380 978,1425 1002,1425" />
    <polygon points="990,1358 975,1395 1005,1395" />
    <polygon points="990,1338 972,1380 1008,1380" />
    <rect x="987" y="1425" width="6" height="30"/>

    <polygon points="1050,1420 1038,1465 1062,1465" />
    <polygon points="1050,1398 1035,1435 1065,1435" />
    <rect x="1047" y="1465" width="6" height="25"/>
  </g>

  <!-- 궁궐 실루엣 -->
  <!-- 중앙 정문 (광화문 스타일) -->
  <g fill="#050412">
    <!-- 기단 -->
    <rect x="240" y="1720" width="600" height="200"/>
    <!-- 몸체 -->
    <rect x="300" y="1650" width="480" height="80"/>
    <!-- 중앙 탑 지붕 (팔작지붕) -->
    <path d="M340,1580 L540,1520 L740,1580 L760,1650 L320,1650 Z"/>
    <path d="M310,1595 L540,1510 L770,1595" fill="none" stroke="#050412" stroke-width="8"/>
    <!-- 지붕 처마 곡선 (반전) -->
    <path d="M340,1580 Q400,1570 540,1560 Q680,1570 740,1580 L760,1590 L320,1590 Z" fill="#070618"/>
    <!-- 용마루 -->
    <rect x="430" y="1518" width="220" height="10"/>
    <!-- 곁 건물 왼쪽 -->
    <rect x="160" y="1690" width="200" height="80"/>
    <path d="M150,1650 L260,1610 L370,1650 L380,1690 L140,1690 Z"/>
    <!-- 곁 건물 오른쪽 -->
    <rect x="720" y="1690" width="200" height="80"/>
    <path d="M710,1650 L820,1610 L930,1650 L940,1690 L700,1690 Z"/>
    <!-- 성벽 -->
    <rect x="0" y="1780" width="240" height="140"/>
    <rect x="840" y="1780" width="240" height="140"/>
  </g>

  <!-- 횃불/등불 효과 -->
  <g opacity="0.6">
    <circle cx="380" cy="1720" r="12" fill="#ff8c00" filter="url(#blur_sm)"/>
    <circle cx="380" cy="1720" r="5" fill="#ffdd00"/>
    <circle cx="700" cy="1720" r="12" fill="#ff8c00" filter="url(#blur_sm)"/>
    <circle cx="700" cy="1720" r="5" fill="#ffdd00"/>
  </g>

  <!-- 안개 레이어 (하단) -->
  <rect width="1080" height="300" y="1620" fill="url(#mist_grad)"/>

  <!-- 단청 문양 장식 테두리 (상단) -->
  <g fill="none" stroke="#8040a0" stroke-width="1" opacity="0.4">
    <rect x="10" y="10" width="1060" height="120" rx="5"/>
    <!-- 반복 회자 패턴 -->
    <g transform="translate(20,20)">
      <rect x="0"   y="0"  width="16" height="16"/>
      <rect x="2"   y="2"  width="12" height="12"/>
      <rect x="4"   y="4"  width="8"  height="8"/>
    </g>
    <g transform="translate(50,20)">
      <rect x="0"   y="0"  width="16" height="16"/>
      <rect x="2"   y="2"  width="12" height="12"/>
    </g>
  </g>

  <!-- 단청 색상 상단 줄 -->
  <rect x="0"   y="0" width="1080" height="6"  fill="#8b1a1a" opacity="0.7"/>
  <rect x="0"   y="6" width="1080" height="3"  fill="#4a7a4a" opacity="0.6"/>
  <rect x="0"   y="9" width="1080" height="3"  fill="#2a5a8a" opacity="0.6"/>
  <rect x="0"   y="12" width="1080" height="2" fill="#8b6a1a" opacity="0.5"/>

  <!-- 단청 색상 하단 줄 -->
  <rect x="0" y="1912" width="1080" height="2"  fill="#8b6a1a" opacity="0.5"/>
  <rect x="0" y="1914" width="1080" height="3"  fill="#2a5a8a" opacity="0.6"/>
  <rect x="0" y="1917" width="1080" height="3"  fill="#4a7a4a" opacity="0.6"/>
  <rect x="0" y="1920" width="1080" height="6"  fill="#8b1a1a" opacity="0.7"/>
</svg>
